<svg width="1364" height="1360" fill="none" xmlns="http://www.w3.org/2000/svg"><path d="M755.216 6.535C864.161 34.69 896.379 178.56 990.129 240.76c105.231 69.818 273.981 41.706 341.641 148.299 65.75 103.59 12.6 242.541-18.17 361.297-28.44 109.755-78.6 211.58-152.57 297.544-71.85 83.5-167.31 137.04-265.083 187.84C789.558 1291.02 683.5 1369.96 564.191 1358c-120.031-12.02-208.037-111.83-303.234-185.88C165.536 1097.9 35.3 1040.6 5.541 923.472c-29.953-117.885 83.116-223.311 105.104-342.936 20.772-113.014-44.24-243.017 20.1-338.247 64.238-95.079 198.684-103.982 306.072-144.524C541.892 58.096 646.47-21.569 755.216 6.535z" fill="url(#paint0_linear_2006_1369)"/><defs><linearGradient id="paint0_linear_2006_1369" x1="-82.69" y1="1359.22" x2="1363.17" y2="1359.22" gradientUnits="userSpaceOnUse"><stop stop-color="#EC1557"/><stop offset=".479" stop-color="#EC156F"/><stop offset="1" stop-color="#EC7C15"/></linearGradient></defs></svg>