<svg width="1450" height="1448" fill="none" xmlns="http://www.w3.org/2000/svg"><path d="M803.07 6.261c115.929 29.99 150.212 183.238 249.97 249.493 111.98 74.369 291.55 44.424 363.54 157.966 69.97 110.341 13.42 258.349-19.33 384.847-30.27 116.909-83.64 225.373-162.35 316.943-76.45 88.94-178.04 145.97-282.077 200.08-113.209 58.88-226.066 142.96-353.024 130.23-127.725-12.81-221.373-119.12-322.673-198-101.538-79.06-240.122-140.1-271.789-264.854-31.873-125.569 88.445-237.867 111.842-365.289 22.104-120.381-47.076-258.857 21.389-360.295 68.355-101.276 211.42-110.76 325.692-153.944C576.071 61.184 687.353-23.674 803.07 6.261z" fill="url(#paint0_linear_2006_1417)"/><defs><linearGradient id="paint0_linear_2006_1417" x1="0" y1="723.556" x2="1450" y2="723.556" gradientUnits="userSpaceOnUse"><stop stop-color="#6E2AB1"/><stop offset="1" stop-color="#EC1557"/></linearGradient></defs></svg>