<svg width="1363" height="1359" fill="none" xmlns="http://www.w3.org/2000/svg"><path d="M754.691 5.878c108.944 28.155 141.162 172.025 234.912 234.225 105.237 69.818 273.977 41.706 341.647 148.3 65.75 103.589 12.6 242.54-18.18 361.297-28.44 109.755-78.59 211.58-152.56 297.54-71.85 83.51-167.315 137.04-265.089 187.85-106.388 55.27-212.446 134.21-331.756 122.26-120.031-12.03-208.036-111.84-303.234-185.89-95.421-74.22-225.656-131.52-255.416-248.645C-24.937 804.93 88.132 699.504 110.12 579.879c20.773-113.014-44.239-243.017 20.101-338.247 64.237-95.079 198.684-103.982 306.071-144.524 105.076-39.668 209.654-119.334 318.4-91.23z" fill="url(#paint0_linear_2006_1369)"/><defs><linearGradient id="paint0_linear_2006_1369" x1="-83.215" y1="1358.56" x2="1362.65" y2="1358.56" gradientUnits="userSpaceOnUse"><stop stop-color="#EC1557"/><stop offset=".479" stop-color="#EC156F"/><stop offset="1" stop-color="#EC7C15"/></linearGradient></defs></svg>