<svg width="1451" height="1448" fill="none" xmlns="http://www.w3.org/2000/svg"><path opacity=".5" d="M803.929 6.79C919.858 36.78 954.141 190.028 1053.9 256.282c111.98 74.369 291.55 44.425 363.54 157.966 69.97 110.342 13.41 258.35-19.33 384.847-30.27 116.909-83.64 225.375-162.35 316.935-76.45 88.95-178.04 145.98-282.079 200.09-113.208 58.88-226.065 142.96-353.023 130.23-127.725-12.81-221.373-119.12-322.673-198-101.538-79.06-240.122-140.1-271.79-264.855-31.872-125.569 88.446-237.867 111.843-365.289 22.104-120.381-47.076-258.858 21.389-360.295 68.355-101.276 211.42-110.76 325.692-153.944C576.93 61.712 688.212-23.146 803.929 6.79z" fill="url(#paint0_linear_2006_1416)"/><path opacity=".5" d="M779.7 229.842c79.951 20.663 103.595 126.244 172.395 171.89 77.225 51.237 201.065 30.607 250.715 108.832 48.26 76.021 9.25 177.992-13.33 265.144-20.87 80.545-57.68 155.271-111.96 218.357-52.73 61.275-122.789 100.565-194.542 137.855-78.075 40.56-155.907 98.49-243.464 89.72-88.087-8.83-152.671-82.07-222.533-136.41-70.027-54.47-165.602-96.526-187.441-182.479-21.982-86.512 60.996-163.88 77.132-251.669 15.244-82.937-32.466-178.342 14.751-248.228 47.142-69.775 145.807-76.309 224.615-106.061 77.111-29.111 153.858-87.575 233.662-66.951z" fill="url(#paint1_linear_2006_1416)"/><defs><linearGradient id="paint0_linear_2006_1416" x1=".859" y1="724.085" x2="1450.86" y2="724.085" gradientUnits="userSpaceOnUse"><stop stop-color="#6E2AB1"/><stop offset="1" stop-color="#EC1557"/></linearGradient><linearGradient id="paint1_linear_2006_1416" x1="225.859" y1="724.029" x2="1225.86" y2="724.029" gradientUnits="userSpaceOnUse"><stop stop-color="#6E2AB1"/><stop offset="1" stop-color="#EC1557"/></linearGradient></defs></svg>