<svg width="177" height="62" fill="none" xmlns="http://www.w3.org/2000/svg"><path d="M29.783 0c.208.52.416 1.076.554 1.631.9 3.958 1.49 8.02 2.736 11.872 1.04 3.229-.173 5.52-1.87 7.915a28.482 28.482 0 01-15.618 11.177 6.427 6.427 0 00-.866.347v.278c.346.104.693.208 1.073.243a41.366 41.366 0 0018.563-4.27 40.266 40.266 0 0012.224-9.337c.52-.556 1.005-.73 1.628-.209 1.454 1.18 2.909 2.291 4.364 3.506.935.799.865 1.076-.174 1.701a1321.528 1321.528 0 01-9.35 5.554c-1.108.66-2.216 1.354-3.325 1.979-.9.486-.83 1.007-.346 1.77a18.501 18.501 0 012.39 14.024c-.45 2.048-1.386 4.027-2.148 6.005-.276.73-.83.556-1.28.174a84.08 84.08 0 01-2.633-2.326l-8.311-7.359c-1.04-.902-1.212-.902-2.147.035-4.364 4.374-9.559 6.11-15.619 5.38-.693-.07-1.385-.173-2.078-.208-.866-.035-1.039-.486-.762-1.18.624-1.527 1.247-3.02 1.905-4.513 1.35-3.193 2.736-6.352 4.121-9.546.485-1.145.312-1.527-.831-2.013-5.887-2.395-9.524-6.77-11.22-12.774-.312-1.077-.485-2.187-.728-3.298-.138-.729.139-1.076.9-.972l10.217.937 4.952.451c.797.07 1.212-.242 1.316-1.076.762-6.56 4.294-11.316 9.87-14.683.658-.382 1.35-.764 2.009-1.11.173-.07.311-.07.484-.105z" fill="#EC1557"/><path d="M71.34 39.85l-1.524-8.678h-2.944l-.83 8.678h-5.403l4.917-26.52h6.269l4.917 26.486-5.402.034zm-3.117-19.404h-.346l-.589 6.7H69.4l-1.177-6.7zm20.225 19.647l-4.052-9.962-.312.486v9.233h-5.23V13.33h5.195v10.379h.139l4.121-10.483 5.403.277-1.247 2.534c-.797 1.632-2.978 5.97-3.74 7.29l-1.143 1.944 6.51 14.336-5.644.486zm16.242-.243V27.423h-.312l-.901 3.818a57.866 57.866 0 01-1.662 5.936l-.866 2.639H96.17V13.33h5.195v12.427h.312l.9-3.819a57.866 57.866 0 011.662-5.935l.866-2.673h4.814v26.485l-5.229.035zm16.138 0h-6.753V13.33h6.649c4.432 0 6.683 1.597 6.683 6.838 0 3.194-1.281 5.103-3.844 5.52v.347c3.429.416 4.225 3.089 4.225 6.352-.034 4.895-1.212 7.463-6.96 7.463zm-.555-22.424h-.969v6.873h.969c1.49 0 1.767-.764 1.767-3.437 0-2.672-.312-3.436-1.767-3.436zm.035 11.004h-1.004v7.324h1.004c1.766 0 2.113-.798 2.113-3.68 0-2.88-.347-3.644-2.113-3.644zm19.29 11.42l-1.524-8.678h-2.944l-.831 8.678h-5.402l4.917-26.52h6.268L145 39.816l-5.402.034zm-3.152-19.404h-.346l-.589 6.7h2.113l-1.178-6.7zM61.365 58.32v-9.1h1.066l4.082 6.877h-.572l4.03-6.877h1.066l.013 9.1h-1.248l-.013-7.137h.299L66.5 57.215h-.598l-3.614-6.032h.325v7.137h-1.248zm15.185.078c-.693 0-1.309-.152-1.846-.455a3.388 3.388 0 01-1.274-1.248c-.312-.537-.468-1.144-.468-1.82 0-.685.156-1.291.468-1.82a3.29 3.29 0 011.274-1.235c.537-.303 1.153-.455 1.846-.455.685 0 1.296.152 1.833.455.546.295.97.706 1.274 1.235.312.52.468 1.127.468 1.82 0 .685-.156 1.291-.468 1.82a3.268 3.268 0 01-1.274 1.248c-.537.303-1.148.455-1.833.455zm0-1.092c.442 0 .836-.1 1.183-.299.355-.2.633-.48.832-.845.2-.373.299-.802.299-1.287 0-.494-.1-.919-.299-1.274a2.11 2.11 0 00-.832-.845 2.33 2.33 0 00-1.183-.299c-.442 0-.836.1-1.183.3-.347.198-.624.48-.832.844-.208.355-.312.78-.312 1.274 0 .485.104.914.312 1.287.208.364.485.646.832.845.347.2.741.3 1.183.3zm8.954 1.092c-.59 0-1.122-.13-1.599-.39a2.895 2.895 0 01-1.118-1.183c-.269-.52-.403-1.17-.403-1.95s.139-1.43.416-1.95c.286-.52.663-.91 1.131-1.17a3.23 3.23 0 011.573-.39c.676 0 1.274.147 1.794.442.52.295.932.706 1.235 1.235.303.52.455 1.131.455 1.833s-.152 1.317-.455 1.846c-.303.529-.715.94-1.235 1.235-.52.295-1.118.442-1.794.442zm-3.653-.078v-9.646h1.248v4.59l-.13 1.598.078 1.6v1.858h-1.196zm3.549-1.014c.442 0 .836-.1 1.183-.299.355-.2.633-.48.832-.845.208-.373.312-.802.312-1.287 0-.494-.104-.919-.312-1.274a2.11 2.11 0 00-.832-.845 2.33 2.33 0 00-1.183-.299c-.433 0-.828.1-1.183.3-.347.198-.624.48-.832.844-.2.355-.299.78-.299 1.274 0 .485.1.914.299 1.287.208.364.485.646.832.845.355.2.75.3 1.183.3zm5.312 1.014v-6.89h1.248v6.89h-1.248zm.624-8.216a.854.854 0 01-.61-.234.778.778 0 01-.235-.572c0-.234.078-.429.234-.585a.854.854 0 01.611-.234.81.81 0 01.598.234.717.717 0 01.247.56.838.838 0 01-.234.597.826.826 0 01-.61.234zm3.007 8.216v-9.646h1.248v9.646h-1.248zm6.699.078c-.737 0-1.387-.152-1.95-.455a3.337 3.337 0 01-1.3-1.248c-.303-.529-.455-1.135-.455-1.82s.147-1.291.442-1.82a3.25 3.25 0 011.235-1.235 3.512 3.512 0 011.781-.455c.667 0 1.257.147 1.768.442.511.295.91.71 1.196 1.248.295.529.442 1.148.442 1.86 0 .051-.004.112-.013.181 0 .07-.004.134-.013.195h-5.863v-.897h5.213l-.507.312a2.31 2.31 0 00-.273-1.183 2.03 2.03 0 00-.793-.806c-.329-.2-.715-.299-1.157-.299-.433 0-.819.1-1.157.3-.338.19-.602.463-.793.818a2.44 2.44 0 00-.286 1.196v.208c0 .46.104.871.312 1.235.217.355.516.633.897.832.381.2.819.3 1.313.3.407 0 .776-.07 1.105-.209.338-.139.633-.347.884-.624l.689.806a3.009 3.009 0 01-1.17.832 4 4 0 01-1.547.286zm8.565-.078v-9.1h1.066l4.082 6.877h-.572l4.03-6.877h1.066l.013 9.1h-1.248l-.013-7.137h.299l-3.588 6.032h-.598l-3.614-6.032h.325v7.137h-1.248zm16.511 0v-1.456l-.065-.273v-2.483c0-.529-.156-.936-.468-1.222-.303-.295-.762-.442-1.378-.442-.407 0-.806.07-1.196.208a3 3 0 00-.988.533l-.52-.936c.356-.286.78-.503 1.274-.65a5.278 5.278 0 011.573-.234c.945 0 1.673.23 2.184.69.512.458.767 1.16.767 2.105v4.16h-1.183zm-2.262.078c-.511 0-.962-.087-1.352-.26a2.09 2.09 0 01-.884-.715 1.856 1.856 0 01-.312-1.053c0-.373.087-.71.26-1.014.182-.303.473-.546.871-.728.408-.182.954-.273 1.638-.273h2.184v.897h-2.132c-.624 0-1.044.104-1.261.312a1.01 1.01 0 00-.325.754c0 .338.135.611.403.82.269.198.642.298 1.118.298.468 0 .876-.104 1.222-.312.356-.208.611-.511.767-.91l.247.858c-.164.407-.455.732-.871.975-.416.234-.94.351-1.573.351zm5.755-.078v-6.89h1.196v1.872l-.117-.468c.19-.477.511-.84.962-1.092.45-.251 1.005-.377 1.664-.377v1.21a.944.944 0 00-.156-.014h-.13c-.668 0-1.196.2-1.586.598-.39.399-.585.975-.585 1.73v3.431h-1.248zm6.257-1.664l.026-1.599 3.965-3.627h1.508l-3.042 2.99-.676.572-1.781 1.664zm-1.014 1.664v-9.646h1.248v9.646h-1.248zm5.265 0l-2.704-3.354.806-1 3.432 4.354h-1.534zm5.534.078c-.736 0-1.386-.152-1.95-.455a3.342 3.342 0 01-1.3-1.248c-.303-.529-.455-1.135-.455-1.82s.148-1.291.442-1.82c.304-.529.715-.94 1.235-1.235a3.516 3.516 0 011.781-.455c.668 0 1.257.147 1.768.442.512.295.91.71 1.196 1.248.295.529.442 1.148.442 1.86 0 .051-.004.112-.013.181 0 .07-.004.134-.013.195h-5.863v-.897h5.213l-.507.312a2.31 2.31 0 00-.273-1.183 2.023 2.023 0 00-.793-.806c-.329-.2-.715-.299-1.157-.299-.433 0-.819.1-1.157.3-.338.19-.602.463-.793.818-.19.347-.286.745-.286 1.196v.208c0 .46.104.871.312 1.235.217.355.516.633.897.832.382.2.819.3 1.313.3.408 0 .776-.07 1.105-.209.338-.139.633-.347.884-.624l.689.806a3.009 3.009 0 01-1.17.832 4 4 0 01-1.547.286zm7.258 0c-.693 0-1.23-.186-1.612-.559-.381-.373-.572-.906-.572-1.599v-6.318h1.248v6.266c0 .373.091.659.273.858.191.2.46.3.806.3.39 0 .715-.11.975-.326l.39.897c-.19.165-.42.286-.689.364-.26.078-.533.117-.819.117zm-3.354-5.94V51.43h4.394v1.027h-4.394zm6.371 5.862v-6.89h1.248v6.89h-1.248zm.624-8.216a.854.854 0 01-.611-.234.778.778 0 01-.234-.572c0-.234.078-.429.234-.585a.854.854 0 01.611-.234.81.81 0 01.598.234.716.716 0 01.247.56.838.838 0 01-.234.597.827.827 0 01-.611.234zm6.686 1.261c.563 0 1.057.108 1.482.325a2.33 2.33 0 011.014.988c.243.442.364 1.001.364 1.677v3.965h-1.248v-3.822c0-.667-.165-1.17-.494-1.508-.321-.338-.776-.507-1.365-.507-.442 0-.828.087-1.157.26a1.82 1.82 0 00-.767.767c-.173.338-.26.758-.26 1.261v3.55h-1.248v-6.89h1.196v1.858l-.195-.494a2.39 2.39 0 011.04-1.053c.468-.251 1.014-.377 1.638-.377zm8.186 9.555a6.303 6.303 0 01-1.846-.273c-.59-.173-1.071-.425-1.443-.754l.598-.962c.32.277.715.494 1.183.65.468.165.957.247 1.469.247.814 0 1.412-.19 1.794-.572.381-.381.572-.962.572-1.742v-1.456l.13-1.365-.065-1.378V51.43h1.183v5.954c0 1.213-.304 2.106-.91 2.678-.607.572-1.495.858-2.665.858zm-.156-2.886c-.668 0-1.266-.139-1.794-.416a3.339 3.339 0 01-1.248-1.183c-.304-.503-.455-1.083-.455-1.742 0-.667.151-1.248.455-1.742a3.238 3.238 0 011.248-1.17c.528-.277 1.126-.416 1.794-.416.589 0 1.126.121 1.612.364.485.234.871.598 1.157 1.092.294.494.442 1.118.442 1.872 0 .745-.148 1.365-.442 1.86a2.817 2.817 0 01-1.157 1.117 3.557 3.557 0 01-1.612.364zm.143-1.092c.459 0 .866-.095 1.222-.286.355-.19.632-.455.832-.793.208-.338.312-.728.312-1.17 0-.442-.104-.832-.312-1.17a2.013 2.013 0 00-.832-.78 2.547 2.547 0 00-1.222-.286c-.46 0-.871.095-1.235.286a2.09 2.09 0 00-.845.78c-.2.338-.299.728-.299 1.17 0 .442.099.832.299 1.17.208.338.489.602.845.793.364.19.775.286 1.235.286z" fill="#000"/></svg>