<svg width="138" height="53" fill="none" xmlns="http://www.w3.org/2000/svg"><path d="M28.345 0c.197.496.395 1.024.527 1.553.857 3.766 1.417 7.631 2.604 11.298.989 3.073-.165 5.253-1.78 7.533A27.106 27.106 0 0114.83 31.022c-.296.099-.56.198-.824.33v.264c.33.1.66.198 1.022.232a39.37 39.37 0 0017.666-4.064 38.323 38.323 0 0011.635-8.887c.494-.528.956-.694 1.549-.198 1.384 1.123 2.768 2.18 4.153 3.337.89.76.824 1.024-.165 1.618a1236.598 1236.598 0 01-8.9 5.286c-1.054.628-2.108 1.289-3.163 1.883-.857.463-.791.959-.33 1.685a17.608 17.608 0 012.275 13.347c-.429 1.95-1.319 3.832-2.044 5.716-.264.693-.791.528-1.22.165a79.957 79.957 0 01-2.504-2.214l-7.91-7.004c-.99-.858-1.154-.858-2.044.033-4.153 4.163-9.097 5.815-14.865 5.121-.659-.066-1.318-.165-1.977-.198-.824-.033-.989-.463-.725-1.123a167.694 167.694 0 011.812-4.295c1.286-3.04 2.604-6.046 3.923-9.085.461-1.09.296-1.454-.791-1.916C5.8 28.775 2.34 24.613.724 18.897c-.296-1.024-.46-2.081-.691-3.138-.132-.694.131-1.025.857-.925 3.23.297 6.493.594 9.723.892l4.713.429c.758.066 1.153-.231 1.252-1.024.725-6.244 4.087-10.77 9.393-13.975A54.933 54.933 0 0127.883.1c.165-.066.297-.066.462-.099z" fill="#EC1557"/><path d="M67.895 37.926l-1.45-8.259h-2.802l-.79 8.26H57.71l4.68-25.241h5.965l4.68 25.207-5.14.033zM64.93 19.46h-.33l-.56 6.376h2.01l-1.12-6.376zm19.248 18.698l-3.856-9.481-.297.462v8.788h-4.977v-25.24h4.944v9.878h.132l3.922-9.977 5.142.264L88 15.263c-.758 1.553-2.834 5.682-3.56 6.938l-1.087 1.85 6.196 13.644-5.372.462zm15.458-.23v-11.83h-.297l-.857 3.634a55.11 55.11 0 01-1.582 5.65l-.824 2.51h-4.548V12.686h4.944v11.827h.296l.857-3.634a55.34 55.34 0 011.582-5.65l.824-2.543h4.582v25.207l-4.977.033zm15.359 0h-6.427V12.685h6.328c4.219 0 6.361 1.52 6.361 6.508 0 3.04-1.22 4.857-3.659 5.253v.33c3.263.397 4.021 2.94 4.021 6.046-.032 4.658-1.153 7.103-6.624 7.103zm-.528-21.343h-.923v6.542h.923c1.418 0 1.681-.727 1.681-3.271s-.296-3.27-1.681-3.27zm.033 10.473h-.956v6.97h.956c1.681 0 2.011-.759 2.011-3.501s-.33-3.469-2.011-3.469zm18.359 10.87l-1.451-8.26h-2.801l-.791 8.26h-5.142l4.68-25.241h5.966L138 37.894l-5.141.033zm-3-18.468h-.329l-.561 6.376h2.011l-1.121-6.376z" fill="#000"/></svg>