<?xml version="1.0" encoding="utf-8"?><svg viewBox="0 0 70 70" xmlns="http://www.w3.org/2000/svg" xmlns:xlink="http://www.w3.org/1999/xlink"><style>:root>svg{display:none}:root>svg:target{display:block}</style><svg fill="none" viewBox="0 0 24 19" id="icon-arrow-more" xmlns="http://www.w3.org/2000/svg"><path d="M14 2l8 8-7.5 7.5M1.5 10H20" stroke="currentColor" stroke-width="2" stroke-linecap="square"/></svg><svg fill="none" viewBox="0 0 70 70" id="icon-arrow-next" xmlns="http://www.w3.org/2000/svg"><path d="M10.938 35h48.124M39.375 15.313L59.063 35 39.374 54.688" stroke="#fff" stroke-width="2"/></svg><svg fill="none" viewBox="0 0 70 70" id="icon-arrow-prev" xmlns="http://www.w3.org/2000/svg"><path d="M59.063 35H10.937M30.625 15.313L10.937 35l19.688 19.688" stroke="#fff" stroke-width="2"/></svg><svg fill="none" viewBox="0 0 16 17" id="icon-caret-black" xmlns="http://www.w3.org/2000/svg"><path d="M13 6.5l-5 5-5-5" stroke="#000" stroke-width="2" stroke-linecap="round" stroke-linejoin="round"/></svg><svg fill="none" viewBox="0 0 32 33" id="icon-send" xmlns="http://www.w3.org/2000/svg"><path d="M26.281 4.985l-23.29 6.57a1 1 0 00-.157 1.865l10.701 5.07a1 1 0 01.476.475l5.069 10.701a1 1 0 001.866-.156l6.57-23.291a1 1 0 00-1.235-1.234zM13.858 18.642l5.657-5.657" stroke="#fff" stroke-width="2" stroke-linecap="round" stroke-linejoin="round"/></svg><svg fill="none" viewBox="0 0 28 29" id="icon-telegram" xmlns="http://www.w3.org/2000/svg"><g clip-path="url(#fclip0_2001_739)"><path d="M10.986 18.211l-.463 6.515c.663 0 .95-.285 1.294-.627l3.107-2.969 6.438 4.715c1.18.658 2.012.311 2.33-1.087l4.226-19.8.002-.001c.374-1.746-.632-2.428-1.782-2L1.3 12.467c-1.696.657-1.67 1.602-.289 2.03l6.35 1.976 14.75-9.23c.695-.46 1.326-.205.807.255L10.987 18.21z" fill="#23A0DD"/></g><defs><clipPath id="fclip0_2001_739"><path fill="#fff" transform="translate(0 .5)" d="M0 0h28v28H0z"/></clipPath></defs></svg><svg fill="none" viewBox="0 0 29 29" id="icon-whatsapp" xmlns="http://www.w3.org/2000/svg"><path d="M14.5 1.16C7.144 1.16 1.16 7.144 1.16 14.5c0 2.297.593 4.555 1.719 6.548L1.18 27.103a.58.58 0 00.698.72l6.32-1.565A13.348 13.348 0 0014.5 27.84c7.356 0 13.34-5.985 13.34-13.34 0-7.356-5.984-13.34-13.34-13.34zm6.71 18.047c-.285.79-1.654 1.511-2.311 1.608-.59.086-1.338.123-2.158-.134a20.105 20.105 0 01-1.952-.713c-3.435-1.465-5.679-4.88-5.85-5.106-.172-.226-1.399-1.834-1.399-3.498 0-1.664.885-2.482 1.199-2.82.314-.34.685-.424.913-.424.229 0 .457.003.657.012.21.01.493-.08.77.58.286.678.971 2.342 1.056 2.512.086.17.142.367.029.593-.114.226-.17.366-.342.564-.172.198-.36.441-.514.593-.172.169-.35.351-.15.69.199.339.886 1.446 1.905 2.343 1.308 1.152 2.411 1.509 2.754 1.678.342.17.542.141.741-.084.2-.227.857-.988 1.084-1.326.228-.338.457-.283.771-.17.315.113 1.998.93 2.34 1.1.343.17.571.254.657.395.086.14.086.818-.2 1.607z" fill="#1FB141"/></svg></svg>