<svg width="644" height="579" fill="none" xmlns="http://www.w3.org/2000/svg"><path d="M334.334 30.122c50.073 4.066 105.345-29.035 148.12-2.692 42.526 26.189 37.789 90.047 63.372 132.938 29.4 49.288 98.073 80.475 98.157 137.864.082 56.406-65.728 88.151-97.758 134.583-32.436 47.018-38.665 121.226-92.289 140.91-54.518 20.012-107.833-35.312-164.813-46.536-49.66-9.783-102.985 6.997-148.482-15.179-48.529-23.653-88.906-63.873-112.91-112.226C3.435 350.846-5.723 293.613 5.693 240.183c10.93-51.151 51.595-88.281 83.805-129.495C120.22 71.381 143.111 19.316 190.502 3.722c47.105-15.5 94.405 22.387 143.832 26.4z" fill="url(#paint0_linear_1_1905)"/><defs><linearGradient id="paint0_linear_1_1905" x1="-38.457" y1="578.048" x2="643.983" y2="578.048" gradientUnits="userSpaceOnUse"><stop stop-color="#EC1557"/><stop offset=".479" stop-color="#EC156F"/><stop offset="1" stop-color="#EC7C15"/></linearGradient></defs></svg>